<svg width="24" height="24" viewBox="0 0 24 24" fill="none" xmlns="http://www.w3.org/2000/svg">
<path d="M2.48381 16.9743L0.0583615 7.70231C-0.321663 6.322 1.23313 5.21461 2.43588 6.00826L5.52405 8.04377C6.18676 8.48147 7.08812 8.23232 7.42814 7.51909L10.5804 0.889051C11.1431 -0.296151 12.8485 -0.29612 13.4126 0.887764L16.5728 7.52038C16.9128 8.23361 17.8129 8.48015 18.4756 8.04377L21.5637 6.00826C22.7678 5.21461 24.3226 6.32331 23.9413 7.70231L21.5157 16.9743C21.2877 17.8471 20.4917 18.4562 19.5797 18.4562H4.41867C3.50795 18.4562 2.71183 17.8471 2.48381 16.9743ZM21.6678 22.4112C21.6678 21.8654 21.2197 21.4225 20.6677 21.4225H3.33323C2.7812 21.4225 2.33317 21.8654 2.33317 22.4112C2.33317 22.957 2.7812 23.4 3.33323 23.4H20.6677C21.2197 23.4 21.6678 22.957 21.6678 22.4112Z" fill="#33D17A"/>
</svg>
