<svg width="20" height="20" viewBox="0 0 20 20" fill="none" xmlns="http://www.w3.org/2000/svg">
<path d="M9.06624 11.5582C8.90624 11.5582 8.74642 11.4974 8.62475 11.3749C7.24642 9.99569 7.07965 7.85986 8.22965 6.29569C8.31632 6.16152 8.45227 5.99735 8.62394 5.82485L11.4238 3.02403C12.1655 2.28236 13.1506 1.87402 14.1989 1.87402C15.2464 1.87402 16.2313 2.28235 16.9729 3.02319C18.5029 4.55402 18.5029 7.0432 16.9729 8.57403L15.4397 10.1074C15.1956 10.3515 14.7997 10.3515 14.5555 10.1074C14.3114 9.86319 14.3114 9.46736 14.5555 9.22319L16.0887 7.68986C17.1312 6.64736 17.1312 4.94985 16.0887 3.90652C15.0771 2.89569 13.3172 2.89652 12.3072 3.90652L9.50793 6.70653C9.39877 6.81653 9.31708 6.91403 9.25708 7.00487C8.45541 8.09737 8.5696 9.5507 9.50793 10.489C9.7521 10.7332 9.7521 11.129 9.50793 11.3732C9.38627 11.4974 9.22541 11.5582 9.06624 11.5582ZM5.80045 18.1249C4.75295 18.1249 3.76807 17.7165 3.02641 16.9757C1.49641 15.4449 1.49641 12.9557 3.02641 11.4249L4.55961 9.89153C4.80378 9.64736 5.19964 9.64736 5.44381 9.89153C5.68797 10.1357 5.68797 10.5315 5.44381 10.7757L3.9106 12.309C2.8681 13.3515 2.8681 15.049 3.9106 16.0924C4.92227 17.1032 6.68214 17.1024 7.69214 16.0924L10.4914 13.2924C10.7797 13.004 10.9948 12.6615 11.1156 12.3024C11.4706 11.3132 11.2297 10.2482 10.4914 9.50904C10.2472 9.26487 10.2472 8.86903 10.4914 8.62487C10.7364 8.3807 11.1321 8.38153 11.3754 8.62487C12.4429 9.6932 12.8048 11.2974 12.2964 12.7115C12.1198 13.2407 11.7987 13.7515 11.3754 14.1757L8.57633 16.9757C7.83383 17.7165 6.84879 18.1249 5.80045 18.1249Z" fill="#00A3FF"/>
</svg>
