<svg width="24" height="24" viewBox="0 0 24 24" fill="none" xmlns="http://www.w3.org/2000/svg">
<path fill-rule="evenodd" clip-rule="evenodd" d="M5.43812 12.0193C5.60939 11.998 5.75 11.8601 5.75 11.6875V8.25C5.75 4.79822 8.54822 2 12 2C15.4518 2 18.25 4.79822 18.25 8.25V11.6875C18.25 11.8601 18.3906 11.998 18.5619 12.0193C19.7954 12.1728 20.75 13.2249 20.75 14.5V19.5C20.75 20.8807 19.6307 22 18.25 22H5.75C4.36929 22 3.25 20.8807 3.25 19.5V14.5C3.25 13.2249 4.2046 12.1728 5.43812 12.0193ZM8.25 8.25C8.25 6.17893 9.92893 4.5 12 4.5C14.0711 4.5 15.75 6.17893 15.75 8.25V11.375C15.75 11.7202 15.4702 12 15.125 12H8.875C8.52982 12 8.25 11.7202 8.25 11.375V8.25ZM13.5625 17C13.5625 17.8629 12.8629 18.5625 12 18.5625C11.1371 18.5625 10.4375 17.8629 10.4375 17C10.4375 16.1371 11.1371 15.4375 12 15.4375C12.8629 15.4375 13.5625 16.1371 13.5625 17Z" fill="#249457"/>
</svg>
