<svg width="31" height="24" viewBox="0 0 31 24" fill="none" xmlns="http://www.w3.org/2000/svg">
<g clip-path="url(#clip0_6742_5773)">
<path d="M5.61848 23.9473V22.3545C5.61848 21.7453 5.24618 21.3463 4.60707 21.3463C4.28752 21.3463 3.94004 21.4514 3.70115 21.7978C3.515 21.5071 3.24818 21.3463 2.84796 21.3463C2.58115 21.3463 2.31434 21.4267 2.10337 21.7174V21.3989H1.54492V23.9473H2.10337V22.5401C2.10337 22.0886 2.34226 21.8752 2.71456 21.8752C3.08686 21.8752 3.273 22.1133 3.273 22.5401V23.9473H3.83145V22.5401C3.83145 22.0886 4.09826 21.8752 4.44264 21.8752C4.81494 21.8752 5.00109 22.1133 5.00109 22.5401V23.9473H5.61848ZM13.9021 21.3989H12.9962V20.6288H12.4377V21.3989H11.932V21.903H12.4377V23.0721C12.4377 23.6566 12.6766 23.9999 13.3157 23.9999C13.5546 23.9999 13.8214 23.9195 14.0076 23.8143L13.8463 23.335C13.6849 23.4401 13.4988 23.4679 13.3654 23.4679C13.0986 23.4679 12.9931 23.3071 12.9931 23.0442V21.903H13.899V21.3989H13.9021ZM18.6427 21.3432C18.3231 21.3432 18.1091 21.504 17.9757 21.7143V21.3958H17.4172V23.9442H17.9757V22.5092C17.9757 22.0855 18.1618 21.8442 18.5093 21.8442C18.6148 21.8442 18.7482 21.8721 18.8568 21.8968L19.0181 21.3649C18.9064 21.3432 18.7482 21.3432 18.6427 21.3432ZM11.4791 21.6092C11.2123 21.4236 10.84 21.3432 10.4397 21.3432C9.80063 21.3432 9.37559 21.6618 9.37559 22.1659C9.37559 22.5896 9.69514 22.8308 10.2536 22.9082L10.5204 22.936C10.812 22.9886 10.9734 23.069 10.9734 23.202C10.9734 23.3875 10.7593 23.5205 10.387 23.5205C10.0147 23.5205 9.71996 23.3875 9.53381 23.2545L9.267 23.6783C9.55863 23.8917 9.95885 23.9968 10.3591 23.9968C11.1037 23.9968 11.5318 23.6504 11.5318 23.1741C11.5318 22.7226 11.1843 22.4844 10.6538 22.404L10.387 22.3762C10.1481 22.3484 9.96196 22.2958 9.96196 22.138C9.96196 21.9525 10.1481 21.8473 10.4428 21.8473C10.7624 21.8473 11.082 21.9803 11.2433 22.0607L11.4791 21.6092ZM26.3369 21.3432C26.0173 21.3432 25.8032 21.504 25.6698 21.7143V21.3958H25.1114V23.9442H25.6698V22.5092C25.6698 22.0855 25.856 21.8442 26.2034 21.8442C26.3089 21.8442 26.4423 21.8721 26.5509 21.8968L26.7123 21.371C26.6037 21.3432 26.4454 21.3432 26.3369 21.3432ZM19.2011 22.6731C19.2011 23.4432 19.7348 23.9999 20.56 23.9999C20.9323 23.9999 21.1991 23.9195 21.466 23.7092L21.1991 23.2576C20.9851 23.4185 20.7741 23.4958 20.5321 23.4958C20.0791 23.4958 19.7596 23.1772 19.7596 22.6731C19.7596 22.1937 20.0791 21.8752 20.5321 21.8504C20.771 21.8504 20.9851 21.9308 21.1991 22.0886L21.466 21.637C21.1991 21.4236 20.9323 21.3463 20.56 21.3463C19.7348 21.3432 19.2011 21.903 19.2011 22.6731ZM24.3668 22.6731V21.3989H23.8083V21.7174C23.6222 21.4793 23.3554 21.3463 23.0079 21.3463C22.2881 21.3463 21.7297 21.903 21.7297 22.6731C21.7297 23.4432 22.2881 23.9999 23.0079 23.9999C23.3802 23.9999 23.647 23.8669 23.8083 23.6288V23.9473H24.3668V22.6731ZM22.316 22.6731C22.316 22.2216 22.6077 21.8504 23.0886 21.8504C23.5415 21.8504 23.8611 22.1968 23.8611 22.6731C23.8611 23.1246 23.5415 23.4958 23.0886 23.4958C22.6108 23.4679 22.316 23.1216 22.316 22.6731ZM15.6333 21.3432C14.8887 21.3432 14.3551 21.8752 14.3551 22.67C14.3551 23.4679 14.8887 23.9968 15.6612 23.9968C16.0335 23.9968 16.4058 23.8917 16.7005 23.6504L16.4337 23.2514C16.2197 23.4123 15.9528 23.5174 15.6891 23.5174C15.3417 23.5174 14.9973 23.3566 14.9166 22.9082H16.806C16.806 22.8277 16.806 22.7752 16.806 22.6947C16.8309 21.8752 16.35 21.3432 15.6333 21.3432ZM15.6333 21.8226C15.9808 21.8226 16.2197 22.036 16.2724 22.4319H14.9414C14.9942 22.0886 15.2331 21.8226 15.6333 21.8226ZM29.5076 22.6731V20.3906H28.9491V21.7174C28.763 21.4793 28.4962 21.3463 28.1487 21.3463C27.4289 21.3463 26.8705 21.903 26.8705 22.6731C26.8705 23.4432 27.4289 23.9999 28.1487 23.9999C28.521 23.9999 28.7878 23.8669 28.9491 23.6288V23.9473H29.5076V22.6731ZM27.4569 22.6731C27.4569 22.2216 27.7485 21.8504 28.2294 21.8504C28.6823 21.8504 29.0019 22.1968 29.0019 22.6731C29.0019 23.1246 28.6823 23.4958 28.2294 23.4958C27.7485 23.4679 27.4569 23.1216 27.4569 22.6731ZM8.76129 22.6731V21.3989H8.20285V21.7174C8.0167 21.4793 7.74989 21.3463 7.40241 21.3463C6.68263 21.3463 6.12419 21.903 6.12419 22.6731C6.12419 23.4432 6.68263 23.9999 7.40241 23.9999C7.77471 23.9999 8.04152 23.8669 8.20285 23.6288V23.9473H8.76129V22.6731ZM6.68573 22.6731C6.68573 22.2216 6.97737 21.8504 7.45825 21.8504C7.91121 21.8504 8.23077 22.1968 8.23077 22.6731C8.23077 23.1246 7.91121 23.4958 7.45825 23.4958C6.97737 23.4679 6.68573 23.1216 6.68573 22.6731Z" fill="white"/>
<path d="M19.6821 2.04395H11.293V17.0687H19.6821V2.04395Z" fill="#FF5A00"/>
<path d="M11.8515 9.5567C11.8515 6.50412 13.291 3.79485 15.5 2.04433C13.8743 0.770103 11.8236 0 9.58667 0C4.28763 0 0 4.27423 0 9.5567C0 14.8392 4.28763 19.1134 9.58667 19.1134C11.8236 19.1134 13.8743 18.3433 15.5 17.0691C13.2879 15.3433 11.8515 12.6093 11.8515 9.5567Z" fill="#EB001B"/>
<path d="M31 9.5567C31 14.8392 26.7124 19.1134 21.4133 19.1134C19.1764 19.1134 17.1257 18.3433 15.5 17.0691C17.7369 15.3155 19.1485 12.6093 19.1485 9.5567C19.1485 6.50412 17.709 3.79485 15.5 2.04433C17.1226 0.770103 19.1733 0 21.4102 0C26.7124 0 31 4.30206 31 9.5567Z" fill="#F79E1B"/>
</g>
<defs>
<clipPath id="clip0_6742_5773">
<rect width="31" height="24" fill="white"/>
</clipPath>
</defs>
</svg>
