<svg width="24" height="24" viewBox="0 0 24 24" fill="none" xmlns="http://www.w3.org/2000/svg">
<path d="M10.943 17.344H10.937C10.8988 17.3432 10.861 17.3347 10.8261 17.319C10.7912 17.3032 10.7598 17.2806 10.7339 17.2524L5.37578 11.4262C5.33122 11.3777 5.30487 11.3153 5.30122 11.2496C5.29757 11.1839 5.31686 11.1189 5.35578 11.0659C5.39472 11.0128 5.45086 10.9749 5.51463 10.9586C5.5784 10.9423 5.64585 10.9486 5.70547 10.9765L10.6095 13.2727C10.6508 13.2921 10.6995 13.2827 10.7311 13.2499L18.2117 5.4315C18.313 5.32556 18.4786 5.314 18.5936 5.40525C18.7086 5.4965 18.7352 5.66025 18.6548 5.78306L11.2136 17.1824C11.203 17.199 11.1905 17.214 11.1767 17.2281L11.1439 17.2609C11.0905 17.314 11.0183 17.3439 10.943 17.344Z" fill="#33D17A"/>
</svg>
